<svg xmlns="http://www.w3.org/2000/svg" width="49" height="34" viewBox="0 0 49 34"><g fill="none" fill-rule="evenodd"><path fill="none" d="M0 0h49v34H0z"/><path fill="#CECECE" d="M.555 15.76c-.102 0-.184.08-.197.192L0 18.682l.358 2.68c.013.113.095.192.197.192.1 0 .18-.078.195-.19l.425-2.683-.425-2.73c-.015-.11-.097-.19-.195-.19zm2.015-1.49c-.017-.12-.1-.2-.204-.2-.104 0-.19.084-.204.2l-.482 4.41.482 4.315c.013.115.1.2.204.2.102 0 .186-.083.203-.2l.547-4.314-.547-4.41zm7.59-4.07c-.2 0-.362.16-.372.367l-.383 8.117.383 5.246c.01.205.173.366.37.366s.36-.162.372-.367l.433-5.246-.433-8.117c-.012-.206-.175-.368-.37-.368zm-3.93 2.82c-.15 0-.275.122-.287.284l-.432 5.378.433 5.203c.012.16.136.283.288.283.15 0 .275-.122.288-.283l.49-5.203-.49-5.38c-.013-.16-.137-.282-.287-.282zm7.92 11.276c.245 0 .445-.198.455-.452l.376-5.157-.375-10.807c-.01-.253-.21-.45-.454-.45-.246 0-.446.197-.454.45l-.333 10.806.333 5.16c.008.25.208.45.454.45zm8.172.024c.338 0 .616-.278.622-.62v.003-.004l.263-5.01-.263-12.48c-.006-.342-.284-.62-.622-.62-.337 0-.616.277-.62.62l-.236 12.476.235 5.017c.006.34.285.617.622.617zm-4.117-.02c.294 0 .53-.236.538-.537v.004l.32-5.08-.32-10.884c-.008-.3-.245-.536-.538-.536-.296 0-.532.235-.54.536l-.283 10.885.285 5.078c.006.298.243.535.538.535zm-10.018-.047c.175 0 .316-.14.33-.324l.462-5.248-.464-4.99c-.013-.185-.154-.324-.33-.324-.176 0-.317.14-.328.325l-.407 4.99.408 5.245c.012.185.152.325.33.325zm-3.897-.287c.128 0 .23-.1.246-.24l.52-5.045-.52-5.233c-.015-.14-.118-.24-.246-.24-.13 0-.232.1-.245.24l-.457 5.234.457 5.044c.013.14.116.242.245.242zM20.256 7.622c-.32 0-.574.254-.58.58l-.26 10.487.26 5.045c.006.322.26.576.58.576.318 0 .572-.253.58-.578v.004l.29-5.046-.29-10.49c-.008-.324-.262-.578-.58-.578zm-8.11 16.684c.22 0 .403-.18.414-.41l.404-5.21-.404-9.973c-.01-.23-.193-.41-.413-.41-.222 0-.403.18-.413.41l-.358 9.973.36 5.213c.008.226.19.406.41.406zm4.52-.49v-.004l.348-5.125-.348-11.17c-.01-.277-.227-.495-.496-.495-.27 0-.49.217-.496.495l-.31 11.17.31 5.127c.008.275.226.492.496.492s.487-.217.496-.494v.003zm26.3-11.568c-.825 0-1.613.168-2.33.47C40.156 7.272 35.602 3 30.046 3c-1.36 0-2.684.268-3.854.722-.455.177-.576.358-.58.71V23.61c.004.37.29.678.65.714.016.002 16.597.01 16.704.01 3.328 0 6.026-2.705 6.026-6.042 0-3.338-2.698-6.044-6.025-6.044zM24.38 4.416c-.362 0-.66.298-.665.664l-.27 13.612.27 4.94c.006.36.303.658.665.658.36 0 .658-.297.663-.664v.006l.296-4.94-.297-13.613c-.005-.366-.302-.664-.663-.664zM4.866 28.174c-.713-.167-.905-.257-.905-.54 0-.2.16-.406.643-.406.41 0 .733.167 1.02.463l.65-.63c-.424-.443-.938-.707-1.637-.707-.888 0-1.607.502-1.607 1.32 0 .888.578 1.152 1.406 1.345.848.192 1.002.322 1.002.61 0 .343-.25.49-.784.49-.43 0-.835-.147-1.15-.515l-.648.58c.34.502.996.817 1.747.817 1.227 0 1.767-.58 1.767-1.435 0-.98-.79-1.223-1.504-1.39zm4.138-1.82c-1.226 0-1.952.952-1.952 2.323 0 1.37.726 2.323 1.952 2.323 1.227 0 1.954-.952 1.954-2.323 0-1.37-.727-2.324-1.954-2.324zm0 3.754c-.725 0-1.028-.625-1.028-1.43 0-.804.303-1.43 1.028-1.43.727 0 1.028.626 1.028 1.43 0 .805-.3 1.43-1.028 1.43zm5.583-1.154c0 .72-.354 1.165-.925 1.165-.572 0-.918-.458-.918-1.18v-2.517h-.9v2.53c0 1.313.733 2.047 1.818 2.047 1.143 0 1.825-.753 1.825-2.06v-2.517h-.9v2.53zm4.78-.624c0 .252.012.818.012.986-.06-.116-.207-.342-.316-.51l-1.594-2.383h-.86v4.51h.887v-1.985c0-.25-.013-.818-.013-.985.057.115.206.34.315.51l1.65 2.46h.803v-4.51h-.887v1.907zm3.45-1.907h-1.408v4.51h1.34c1.157 0 2.3-.67 2.3-2.255 0-1.65-.95-2.255-2.234-2.255zm-.066 3.634h-.442V27.3h.475c.95 0 1.343.457 1.343 1.378 0 .825-.43 1.38-1.375 1.38zm5.083-2.81c.404 0 .66.18.822.49l.835-.386c-.283-.585-.797-.997-1.645-.997-1.174 0-1.997.953-1.997 2.324 0 1.422.79 2.323 1.965 2.323.816 0 1.356-.38 1.664-1.017l-.758-.45c-.238.4-.477.573-.88.573-.676 0-1.068-.62-1.068-1.43 0-.836.387-1.43 1.06-1.43zm3.335-.824h-.9v4.51h2.704v-.89h-1.804v-3.62zm4.173-.07c-1.227 0-1.952.953-1.952 2.324 0 1.37.725 2.323 1.953 2.323 1.228 0 1.954-.952 1.954-2.323 0-1.37-.726-2.324-1.953-2.324zm0 3.755c-.725 0-1.027-.625-1.027-1.43 0-.804.302-1.43 1.028-1.43s1.028.626 1.028 1.43c0 .805-.302 1.43-1.027 1.43zm5.583-1.154c0 .72-.353 1.165-.924 1.165-.574 0-.92-.458-.92-1.18v-2.517h-.9v2.53c0 1.313.733 2.047 1.82 2.047 1.142 0 1.823-.753 1.823-2.06v-2.517h-.9v2.53zm3.43-2.53h-1.406v4.51h1.342c1.156 0 2.3-.672 2.3-2.256 0-1.65-.952-2.255-2.237-2.255zm-.064 3.633h-.444V27.3h.476c.95 0 1.342.457 1.342 1.378 0 .825-.43 1.38-1.375 1.38z"/></g></svg>