<svg xmlns="http://www.w3.org/2000/svg" width="125" height="34" viewBox="0 0 125 34"><g fill="none" fill-rule="evenodd"><path fill="none" d="M0 0h125v34H0z"/><g fill="#CECECE"><path d="M50.573 8.083c1.06-.345 2.29.427 2.433 1.542.21 1.06-.627 2.17-1.7 2.25-.997.132-1.998-.652-2.104-1.66-.148-.926.47-1.892 1.37-2.132zm-12.63.44c.62.004 1.243-.008 1.864 0 .402.008.842.094 1.128.403.318.34.358.833.36 1.277-.005 2.208 0 4.416-.004 6.624.444-.028 1.046.09 1.316-.368.76-1.17 1.508-2.347 2.267-3.52 1.255.004 2.51.003 3.767.003-1 1.508-2.012 3.01-3.017 4.514-.186.286-.405.548-.636.797.458.455.702 1.062 1.007 1.62.794 1.604 1.773 3.102 2.678 4.644-.998-.013-1.996.023-2.993-.017-.586-.01-1.138-.337-1.417-.857-.673-1.198-1.28-2.434-1.94-3.64-.2-.37-.687-.252-1.03-.298-.003 1.605.003 3.21-.003 4.813-1.115 0-2.23-.003-3.345 0-.004-5.332 0-10.663 0-15.995zm20.05 5.716c.74-.86 1.802-1.417 2.927-1.525 1.192-.113 2.513.06 3.44.89.842.738 1.18 1.885 1.248 2.973.04 2.645-.04 5.293.04 7.937-.652-.01-1.307.034-1.957-.024-.46-.032-.926-.25-1.162-.663-.28-.502-.226-1.1-.23-1.656 0-1.573.008-3.15-.004-4.725-.014-.596-.164-1.356-.808-1.567-.868-.234-1.85.038-2.488.672-.636.627-.908 1.548-.932 2.424 0 1.847.002 3.695 0 5.543-1.105 0-2.21.002-3.317 0V12.943c.802.046 1.642-.127 2.413.168.476.177.71.663.83 1.13zm-8.426-1.297c.813.042 1.654-.116 2.44.145.588.207.876.85.875 1.443.01 3.33 0 6.658.004 9.987H49.6c.017-3.86-.024-7.716-.033-11.574zM17.13 15.65c-.7.207-1.288.728-1.608 1.383-.706 1.477-.434 3.596 1.054 4.48 1.164.686 2.838.352 3.577-.81.8-1.27.752-3.08-.206-4.255-.673-.804-1.83-1.087-2.818-.797zm-.524-2.815c1.894-.362 3.99.057 5.446 1.375 2.384 2.118 2.543 6.207.417 8.562-2.3 2.578-6.857 2.575-9.123-.047-2.188-2.474-1.872-6.826.82-8.813.713-.546 1.56-.904 2.44-1.077zm13.41 2.808c-.952.258-1.66 1.108-1.88 2.055-.338 1.343 0 3.008 1.238 3.78.997.61 2.39.5 3.25-.31.724-.672.984-1.713.936-2.676-.033-.906-.4-1.842-1.13-2.403-.672-.536-1.6-.667-2.414-.447zm-.627-2.794c1.663-.327 3.485-.085 4.905.885 1.2.79 2.045 2.076 2.356 3.48.42 1.88.04 3.996-1.24 5.467-2.252 2.637-6.81 2.698-9.132.125-2.08-2.27-2.022-6.2.16-8.383.795-.812 1.848-1.34 2.95-1.575zm42.064 2.91c-.74.284-1.15 1.06-1.276 1.81-.177 1-.05 2.12.567 2.953.798 1.09 2.665 1.146 3.47.038.55-.78.575-1.792.51-2.71-.066-.772-.375-1.632-1.11-1.995-.666-.315-1.472-.356-2.16-.094zm-1.65-2.7c1.692-.68 3.82-.55 5.222.702.198-.388.534-.715.972-.794.66-.113 1.335-.035 2-.058C78 16.458 78 20.006 78 23.554c0 1.296-.388 2.63-1.282 3.593-1.153 1.264-2.898 1.797-4.564 1.852-1.55.024-3.114-.348-4.474-1.106.26-.645.466-1.318.795-1.934.165-.32.542-.487.892-.423.55.1 1.07.334 1.63.405.982.148 2.092.128 2.92-.494.626-.48.818-1.32.773-2.076-1.05.886-2.513 1.04-3.82.8-1.31-.242-2.496-1.067-3.195-2.207-.947-1.52-1.13-3.425-.777-5.158.32-1.608 1.36-3.13 2.906-3.747zM3.458 17.607c-.327.208-.38.627-.39.984-.002 1.044 0 2.087 0 3.13.957-.006 1.913.006 2.87-.004.653-.013 1.32-.362 1.628-.956.465-.9.375-2.166-.42-2.85-.65-.55-1.55-.48-2.343-.486-.447.02-.946-.076-1.345.183zm-.09-6.194c-.267.238-.29.62-.3.953-.002.86.003 1.72 0 2.58.83-.005 1.663.01 2.494-.005.498-.01 1-.228 1.304-.633.6-.824.566-2.182-.29-2.818-.585-.432-1.346-.31-2.026-.33-.397.01-.87-.054-1.18.253zM.004 10.208C-.052 9.31.763 8.5 1.646 8.523H5.69c1.33.03 2.734.424 3.673 1.418 1.448 1.505 1.36 4.178-.13 5.62-.177.165-.362.317-.544.473.767.388 1.478.95 1.86 1.743.695 1.426.61 3.243-.272 4.568-.972 1.453-2.777 2.068-4.453 2.107-1.94.007-3.88 0-5.82.003-.002-4.748 0-9.496-.002-14.245z"/><path fill-opacity=".5" d="M84.968 14.486c1.61-1.613 4.116-2.116 6.282-1.548.838.234 1.717.627 2.187 1.4.467.77.22 1.71.28 2.558-.652-.014-1.305.028-1.954-.017-.458-.053-.768-.45-.905-.858-.1-.312-.446-.42-.726-.502-1.162-.276-2.485.224-3.123 1.25-.62.985-.69 2.3-.213 3.358.47 1.042 1.606 1.648 2.72 1.678 1.336.07 2.58-.666 3.474-1.614.454.763.918 1.52 1.37 2.282-2.25 2.617-6.683 2.92-9.223.564-2.38-2.153-2.44-6.3-.17-8.552zm25.825-.12c.682-.82 1.628-1.46 2.7-1.608 1.042-.144 2.202.038 3.013.755.372.312.608.745.863 1.15.762-1.073 1.982-1.822 3.3-1.93 1.176-.106 2.498.163 3.29 1.106.764.91.925 2.15.938 3.3-.003 2.415.005 4.83-.006 7.244-.82-.054-1.696.137-2.474-.202-.6-.287-.704-1.026-.693-1.62 0-1.762.006-3.525 0-5.286-.035-.55-.11-1.26-.678-1.52-.734-.298-1.59-.008-2.127.536-.713.72-1.007 1.757-1.057 2.745.002 1.78-.004 3.558.005 5.338-1.06.014-2.118.003-3.175.007 0-2.247-.002-4.493 0-6.74-.012-.558-.06-1.177-.446-1.616-.38-.443-1.05-.465-1.566-.297-.723.263-1.204.94-1.485 1.628-.34.806-.396 1.693-.397 2.557v4.467c-1.035 0-2.07 0-3.106-.002V12.966c.81.04 1.69-.145 2.437.257.422.225.547.717.663 1.142zm-10.927 1.222c-.71.18-1.325.688-1.66 1.34-.658 1.312-.525 3.104.57 4.146 1 .96 2.767.9 3.718-.103.62-.643.866-1.565.836-2.442-.004-.97-.41-1.988-1.224-2.553-.64-.46-1.485-.567-2.24-.387zm-.512-2.778c1.88-.33 3.948.106 5.37 1.426 2.328 2.116 2.46 6.13.347 8.44-2.28 2.513-6.744 2.52-9.01-.015-2.063-2.285-1.966-6.227.286-8.353.82-.79 1.89-1.3 3.008-1.497zm-18.956 7.933c1.098-.34 2.347.534 2.406 1.684.114 1.01-.7 2.007-1.717 2.075-1.004.13-2-.673-2.086-1.682-.13-.917.497-1.857 1.398-2.077z"/></g></g></svg>