<svg xmlns="http://www.w3.org/2000/svg" width="73" height="34" viewBox="0 0 73 34"><g fill="none" fill-rule="evenodd"><path fill="none" d="M0 0h72v34H0z"/><g fill="#CECECE"><path fill-opacity=".5" d="M49.097 14.58c-.31 2.013-1.865 2.013-3.37 2.013h-.856l.602-3.76c.035-.226.234-.393.466-.393h.393c1.025 0 1.992 0 2.49.576.3.345.39.857.277 1.564m-.655-5.253H42.77c-.39 0-.72.28-.78.658l-2.294 14.383c-.046.283.177.54.466.54h2.912c.27 0 .502-.195.545-.46l.65-4.078c.06-.38.39-.658.778-.658h1.795c3.737 0 5.895-1.788 6.458-5.332.255-1.55.01-2.767-.723-3.62-.806-.937-2.237-1.433-4.135-1.433zm13.172 10.416c-.263 1.535-1.495 2.566-3.067 2.566-.787 0-1.42-.252-1.824-.727-.402-.47-.553-1.14-.426-1.886.245-1.522 1.497-2.585 3.045-2.585.772 0 1.398.253 1.81.732.417.483.58 1.157.462 1.9zm3.786-5.228h-2.717c-.232 0-.43.167-.467.395l-.12.75-.19-.27c-.588-.845-1.9-1.128-3.21-1.128-3 0-5.564 2.25-6.063 5.403-.26 1.574.11 3.077 1.012 4.127.83.964 2.012 1.365 3.42 1.365 2.42 0 3.763-1.536 3.763-1.536l-.122.747c-.045.284.176.54.468.54h2.446c.388 0 .718-.278.78-.657l1.468-9.194c.045-.284-.177-.54-.468-.54zm3.202-4.793l-2.328 14.646c-.045.283.176.54.467.54h2.343c.388 0 .718-.28.778-.658l2.297-14.383c.046-.283-.176-.54-.467-.54h-2.62c-.234 0-.432.167-.468.395z"/><path d="M9.184 14.638c-.303 2.036-1.82 2.036-3.29 2.036h-.836l.587-3.8c.035-.23.228-.4.455-.4h.384c1 0 1.944 0 2.43.583.292.35.38.867.27 1.58m-.64-5.31H3.007c-.38 0-.7.282-.76.665L.005 24.534c-.045.287.172.546.455.546h2.647c.378 0 .7-.282.76-.664l.604-3.924c.06-.383.383-.665.76-.665h1.754c3.648 0 5.755-1.808 6.304-5.392.248-1.566.01-2.797-.706-3.66-.788-.947-2.184-1.448-4.037-1.448zm12.86 10.532c-.256 1.55-1.46 2.592-2.993 2.592-.77 0-1.385-.254-1.78-.733-.393-.477-.54-1.154-.416-1.908.238-1.54 1.46-2.614 2.972-2.614.754 0 1.365.256 1.768.74.407.488.567 1.17.45 1.92zm3.697-5.287h-2.65c-.23 0-.422.17-.458.4l-.116.758-.185-.274c-.574-.853-1.855-1.14-3.133-1.14-2.93 0-5.433 2.275-5.92 5.464-.254 1.59.106 3.11.987 4.172.81.974 1.964 1.38 3.34 1.38 2.363 0 3.673-1.553 3.673-1.553l-.12.754c-.043.286.173.546.457.546h2.39c.378 0 .7-.28.76-.665l1.433-9.296c.045-.288-.173-.547-.456-.547zm14.128 0h-2.666c-.255 0-.494.13-.637.346l-3.678 5.544-1.558-5.33c-.1-.332-.4-.56-.74-.56h-2.62c-.315 0-.538.318-.436.624l2.935 8.823-2.762 3.99c-.216.312.002.745.377.745h2.663c.252 0 .49-.126.633-.338l8.867-13.102c.212-.314-.007-.742-.38-.742z"/></g></g></svg>