<svg xmlns="http://www.w3.org/2000/svg" width="67" height="34" viewBox="0 0 67 34"><g fill="none" fill-rule="evenodd"><path fill="none" d="M0 0h67v34H0z"/><path fill="#CECECE" d="M7 15.595c-1.442-.538-2.234-.956-2.234-1.614 0-.557.455-.876 1.266-.876 1.484 0 3.006.578 4.055 1.096l.593-3.687c-.83-.398-2.532-1.056-4.885-1.056-1.66 0-3.046.438-4.035 1.255C.732 11.57.198 12.805.198 14.3c0 2.71 1.64 3.866 4.31 4.842 1.722.618 2.296 1.057 2.296 1.734 0 .658-.554 1.036-1.563 1.036-1.245 0-3.302-.617-4.647-1.414L0 24.224c1.147.658 3.283 1.335 5.498 1.335 1.76 0 3.224-.42 4.213-1.216 1.108-.877 1.682-2.172 1.682-3.846 0-2.77-1.68-3.926-4.39-4.903zm14.05-2.172l.594-3.667h-3.132V5.304l-4.21.7-.61 3.752-1.48.242-.555 3.425h2.03v7.194c0 1.873.474 3.17 1.443 3.966.81.658 1.978.976 3.62.976 1.265 0 2.037-.22 2.57-.36v-3.885c-.296.08-.97.22-1.423.22-.97 0-1.385-.5-1.385-1.635v-6.477h2.54zm9.408-3.88c-1.385 0-2.492.73-2.927 2.046l-.296-1.834h-4.292V25.26h4.905V15.196c.613-.757 1.484-1.03 2.67-1.03.257 0 .534 0 .87.06V9.66c-.336-.078-.632-.118-.93-.118zm4.588-1.322c1.424 0 2.572-1.174 2.572-2.61 0-1.454-1.148-2.61-2.572-2.61-1.443 0-2.59 1.156-2.59 2.61 0 1.436 1.147 2.61 2.59 2.61zm-2.472 1.536H37.5V25.26h-4.926V9.756zm18.88 1.395c-.87-1.135-2.076-1.693-3.62-1.693-1.423 0-2.67.598-3.836 1.853l-.257-1.554h-4.31V31l4.905-.817V25.2c.75.24 1.522.36 2.215.36 1.226 0 3.006-.32 4.39-1.834 1.325-1.455 1.998-3.707 1.998-6.676 0-2.63-.495-4.624-1.483-5.9zm-4.074 9.567c-.395.757-1.008 1.156-1.72 1.156-.495 0-.93-.1-1.325-.3V14.2c.83-.877 1.582-.976 1.86-.976 1.245 0 1.858 1.355 1.858 4.005 0 1.514-.218 2.69-.673 3.487zM67 17.37c0-2.472-.534-4.426-1.582-5.8-1.068-1.396-2.67-2.113-4.707-2.113-4.173 0-6.763 3.11-6.763 8.09 0 2.79.692 4.884 2.056 6.22 1.227 1.195 2.987 1.792 5.26 1.792 2.098 0 4.036-.5 5.262-1.316l-.534-3.388c-1.205.658-2.61 1.017-4.192 1.017-.95 0-1.602-.2-2.076-.618-.515-.44-.81-1.156-.91-2.172h8.13c.018-.24.058-1.356.058-1.714zm-8.228-1.317c.14-2.212.732-3.248 1.86-3.248 1.107 0 1.68 1.056 1.76 3.248h-3.62z"/></g></svg>